<svg id="Capa_1" enable-background="new 0 0 512 512" height="512" viewBox="0 0 512 512" width="512" xmlns="http://www.w3.org/2000/svg"><g><path d="m486.034 229.161c-15.694-5.296-32.461 2.561-40.774 19.106l-50.886 101.377c-6.213 12.378-14.114 14.184-18.994 11.97-3.277-1.487-6.262-5.289-3.891-11.113l10.995-27.017c.049-.12.096-.241.14-.363 6.25-17.252-2.682-36.422-19.933-42.74-17.023-6.194-36.205 2.658-42.759 19.733l-18.186 47.375c-20.652 53.873-24.493 92.725-24.927 154.44-.019 2.665 1.027 5.226 2.904 7.117 1.877 1.89 4.431 2.954 7.096 2.954h83.333c5.523 0 10-4.477 10-10v-15.025c0-12.854 10.198-31.645 38.94-42.306 27.998-10.393 40.122-24.35 47.895-55.229l39.484-119.039c5.664-16.986-3.496-35.484-20.437-41.24zm1.461 34.931-39.606 119.407c-.079.24-.149.482-.211.728-6.153 24.658-13.793 33.62-35.541 41.692-38.368 14.231-51.982 41.785-51.982 61.057v5.024h-63.227c.783-53.534 5.078-89.311 23.493-137.348l18.184-47.372c2.671-6.958 10.404-10.597 17.228-8.112 6.859 2.512 10.44 10.103 8.044 16.981l-10.911 26.812c-5.965 14.651.119 30.5 14.151 36.867 13.526 6.136 33.421 2.118 45.132-21.211l50.885-101.375c3.143-6.257 9.466-11.508 16.486-9.138 6.54 2.223 10.074 9.389 7.875 15.988z"/><path d="m192.061 300.133c-6.519-17.086-25.701-25.947-42.786-19.745-17.252 6.319-26.17 25.498-19.878 42.753.042.115.086.23.133.344l10.996 27.017c2.361 5.828-.634 9.63-3.918 11.117-4.876 2.206-12.769.397-18.966-11.973l-50.889-101.38c-8.308-16.537-25.083-24.396-40.821-19.097-16.884 5.737-26.047 24.226-20.423 41.223l39.516 119.047c7.743 30.874 19.862 44.836 47.874 55.234 28.759 10.657 38.963 29.449 38.963 42.304v15.023c0 5.523 4.477 10 10 10h83.305c2.665 0 5.218-1.063 7.096-2.954 1.877-1.891 2.923-4.452 2.904-7.117-.375-53.385-2.382-95.712-24.928-154.444zm-40.2 191.867v-5.025c0-19.275-13.622-46.831-52.008-61.056-21.754-8.074-29.387-17.035-35.513-41.684-.062-.249-.133-.496-.214-.739l-39.633-119.397c-2.184-6.602 1.348-13.777 7.846-15.985 7.066-2.378 13.398 2.873 16.541 9.126l50.883 101.371c11.686 23.319 31.567 27.35 45.091 21.227 14.045-6.357 20.149-22.207 14.199-36.867-.001-.003-.002-.006-.003-.009l-10.916-26.822c-2.415-6.87 1.157-14.458 7.993-16.962 6.857-2.49 14.598 1.136 17.255 8.103l18.184 47.372c18.417 47.975 22.71 83.76 23.494 137.347z"/><path d="m111.459 196.133c29.938 0 54.295-24.3 54.295-54.168 0-29.884-24.356-54.196-54.295-54.196-29.923 0-54.267 24.312-54.267 54.196.001 29.868 24.345 54.168 54.267 54.168zm0-88.364c18.91 0 34.295 15.34 34.295 34.196 0 18.84-15.385 34.168-34.295 34.168-18.895 0-34.267-15.328-34.267-34.168.001-18.856 15.373-34.196 34.267-34.196z"/><path d="m255.993 108.364c29.938 0 54.295-24.312 54.295-54.196 0-29.868-24.356-54.168-54.295-54.168-29.923 0-54.267 24.3-54.267 54.168 0 29.884 24.344 54.196 54.267 54.196zm0-88.364c18.91 0 34.295 15.328 34.295 34.168 0 18.856-15.385 34.196-34.295 34.196-18.895 0-34.267-15.34-34.267-34.196 0-18.84 15.373-34.168 34.267-34.168z"/><path d="m346.26 141.965c0 29.868 24.344 54.168 54.267 54.168 29.938 0 54.294-24.3 54.294-54.168 0-29.884-24.356-54.196-54.294-54.196-29.923 0-54.267 24.313-54.267 54.196zm54.267-34.196c18.91 0 34.294 15.34 34.294 34.196 0 18.84-15.384 34.168-34.294 34.168-18.895 0-34.267-15.328-34.267-34.168 0-18.856 15.372-34.196 34.267-34.196z"/><path d="m310.288 229.564c0-29.884-24.356-54.196-54.295-54.196-29.923 0-54.267 24.312-54.267 54.196 0 29.868 24.344 54.168 54.267 54.168 29.939 0 54.295-24.299 54.295-54.168zm-54.295 34.168c-18.895 0-34.267-15.328-34.267-34.168 0-18.856 15.372-34.196 34.267-34.196 18.91 0 34.295 15.34 34.295 34.196 0 18.841-15.385 34.168-34.295 34.168z"/><path d="m124.336 68.591c2.206 0 4.426-.727 6.276-2.22 10.457-8.443 22.487-15.757 35.758-21.74 5.035-2.27 7.276-8.191 5.006-13.226s-8.191-7.277-13.226-5.006c-14.827 6.684-28.319 14.897-40.103 24.412-4.297 3.469-4.968 9.765-1.498 14.062 1.976 2.447 4.869 3.718 7.787 3.718z"/><path d="m345.637 44.627c13.31 6.013 25.343 13.328 35.765 21.743 1.85 1.494 4.07 2.22 6.276 2.22 2.918 0 5.811-1.271 7.787-3.718 3.47-4.297 2.799-10.593-1.498-14.062-11.745-9.483-25.235-17.696-40.096-24.409-5.034-2.274-10.956-.037-13.23 4.997-2.274 5.033-.037 10.956 4.996 13.229z"/><path d="m166.371 239.102c-13.345-6.015-25.372-13.327-35.747-21.73-4.29-3.476-10.588-2.816-14.064 1.477-3.477 4.292-2.815 10.588 1.477 14.064 11.709 9.484 25.206 17.701 40.115 24.422 1.334.601 2.73.886 4.104.886 3.812 0 7.454-2.192 9.123-5.893 2.268-5.035.026-10.956-5.008-13.226z"/><path d="m349.76 258.221c1.376 0 2.775-.286 4.111-.889 14.943-6.75 28.438-14.966 40.108-24.419 4.292-3.476 4.952-9.773 1.476-14.065-3.477-4.292-9.773-4.952-14.065-1.476-10.34 8.375-22.369 15.688-35.752 21.733-5.033 2.273-7.27 8.197-4.997 13.23 1.669 3.697 5.309 5.886 9.119 5.886z"/></g></svg>